<?xml version="1.0" standalone="no"?>
<!DOCTYPE svg PUBLIC "-//W3C//DTD SVG 20010904//EN"
 "http://www.w3.org/TR/2001/REC-SVG-20010904/DTD/svg10.dtd">
<svg version="1.0" xmlns="http://www.w3.org/2000/svg"
 width="512.000000pt" height="512.000000pt" viewBox="0 0 512.000000 512.000000"
 preserveAspectRatio="xMidYMid meet">
<metadata>
Created by potrace 1.15, written by Peter Selinger 2001-2017
</metadata>
<g transform="translate(0.000000,512.000000) scale(0.100000,-0.100000)"
fill="#000000" stroke="none">
<path d="M2440 4959 c-522 -43 -980 -434 -1115 -954 -45 -176 -52 -331 -20
-480 3 -16 -5 -26 -32 -40 -51 -28 -100 -96 -113 -159 -15 -76 19 -299 58
-370 27 -50 76 -93 132 -116 16 -7 30 -18 30 -24 1 -55 34 -292 46 -331 43
-130 111 -229 258 -375 80 -79 106 -111 106 -130 0 -76 -83 -724 -100 -780
-25 -83 -81 -171 -151 -235 -36 -33 -165 -112 -370 -230 -173 -98 -469 -268
-659 -377 l-344 -198 2394 0 2395 0 -65 38 c-557 327 -1236 733 -1276 763 -87
65 -155 161 -192 274 -13 38 -36 191 -63 418 l-42 357 134 138 c121 123 139
147 181 232 56 113 73 177 88 330 6 65 16 118 23 123 7 4 36 22 65 38 84 47
105 90 132 264 14 91 20 161 16 188 -9 59 -55 130 -106 163 l-42 28 9 65 c46
358 -92 736 -367 1011 -268 268 -628 400 -1010 369z m-352 -1466 l-213 -213
213 -213 212 -212 -58 -58 -57 -57 -270 270 -270 270 270 270 270 270 57 -57
58 -58 -212 -212z m1117 -483 l-270 -270 -57 57 -58 58 212 212 213 213 -213
213 -212 212 57 58 58 57 270 -270 270 -270 -270 -270z m-552 755 c53 -6 67
-11 67 -24 -1 -30 -156 -941 -162 -946 -8 -9 -158 17 -158 27 0 12 148 906
155 936 4 14 11 22 19 19 7 -3 43 -8 79 -12z"/>
</g>
</svg>
